<svg fill="none" height="512" viewBox="0 0 512 512" width="512" xmlns="http://www.w3.org/2000/svg"><path d="m188.57 128.004c-74.129 0-134.2212 60.093-134.2212 134.221-.0001 8.75.8555 17.52 2.5791 26.185 5.1789 26.036 17.9622 49.952 36.7333 68.723 18.7708 18.771 42.6868 31.555 68.7238 36.733 26.036 5.179 53.023 2.521 77.549-7.637 24.525-10.159 45.488-27.363 60.236-49.435 7.494-11.216 13.213-23.433 17.025-36.221h-166.974v-38.348h210.918c0 12.97-1.461 25.831-4.315 38.348-4.654 20.422-13.012 39.932-24.768 57.526-18.962 28.379-45.914 50.498-77.447 63.559-31.533 13.062-66.231 16.479-99.706 9.82-33.475-6.658-64.2242-23.094-88.3585-47.228-24.1342-24.135-40.5699-54.883-47.2285-88.359-6.6587-33.475-3.2412-68.173 9.8202-99.706 13.0613-31.533 35.18-58.485 63.5589-77.447 17.5939-11.756 37.1049-20.1135 57.5259-24.768 12.518-2.8532 25.378-4.3149 38.349-4.3149z" fill="#000"/><path d="m188.57 128.004c-74.129 0-134.2212 60.093-134.2212 134.221-.0001 8.75.8555 17.52 2.5791 26.185 5.1789 26.036 17.9622 49.952 36.7333 68.723 18.7708 18.771 42.6868 31.555 68.7238 36.733 26.036 5.179 53.023 2.521 77.549-7.637 24.525-10.159 45.488-27.363 60.236-49.435 7.494-11.216 13.213-23.433 17.025-36.221h-166.974v-38.348h210.918c0 12.97-1.461 25.831-4.315 38.348-4.654 20.422-13.012 39.932-24.768 57.526-18.962 28.379-45.914 50.498-77.447 63.559-31.533 13.062-66.231 16.479-99.706 9.82-33.475-6.658-64.2242-23.094-88.3585-47.228-24.1342-24.135-40.5699-54.883-47.2285-88.359-6.6587-33.475-3.2412-68.173 9.8202-99.706 13.0613-31.533 35.18-58.485 63.5589-77.447 17.5939-11.756 37.1049-20.1135 57.5259-24.768 12.518-2.8532 25.378-4.3149 38.349-4.3149z" fill="#bf8dff"/><path d="m322.79 383.79c74.129 0 134.221-60.092 134.221-134.22 0-8.75-.855-17.521-2.579-26.186-5.179-26.036-17.962-49.952-36.733-68.723s-42.687-31.554-68.723-36.733c-26.037-5.179-53.024-2.521-77.55 7.638-24.525 10.159-45.488 27.362-60.236 49.435-7.494 11.215-13.213 23.432-17.025 36.22h166.974v38.349h-210.918c0-12.971 1.461-25.831 4.315-38.349 4.654-20.421 13.012-39.932 24.768-57.526 18.962-28.379 45.914-50.497 77.447-63.5588 31.533-13.0614 66.231-16.4789 99.706-9.8202 33.475 6.6586 64.224 23.094 88.358 47.229 24.135 24.134 40.57 54.883 47.229 88.358s3.241 68.173-9.82 99.706-35.18 58.485-63.559 77.447c-17.594 11.756-37.105 20.114-57.526 24.768-12.518 2.854-25.378 4.315-38.349 4.315z" fill="#000"/><path d="m322.79 383.79c74.129 0 134.221-60.092 134.221-134.22 0-8.75-.855-17.521-2.579-26.186-5.179-26.036-17.962-49.952-36.733-68.723s-42.687-31.554-68.723-36.733c-26.037-5.179-53.024-2.521-77.55 7.638-24.525 10.159-45.488 27.362-60.236 49.435-7.494 11.215-13.213 23.432-17.025 36.22h166.974v38.349h-210.918c0-12.971 1.461-25.831 4.315-38.349 4.654-20.421 13.012-39.932 24.768-57.526 18.962-28.379 45.914-50.497 77.447-63.5588 31.533-13.0614 66.231-16.4789 99.706-9.8202 33.475 6.6586 64.224 23.094 88.358 47.229 24.135 24.134 40.57 54.883 47.229 88.358s3.241 68.173-9.82 99.706-35.18 58.485-63.559 77.447c-17.594 11.756-37.105 20.114-57.526 24.768-12.518 2.854-25.378 4.315-38.349 4.315z" fill="#61dafb"/></svg>